HIERARCHY
ROOT Hips
{
	OFFSET 0.00000 0.00000 0.00000
	CHANNELS 6 Xposition Yposition Zposition Zrotation Yrotation Xrotation 
	JOINT LHipJoint
	{
		OFFSET 0 0 0
		CHANNELS 3 Zrotation Yrotation Xrotation
		JOINT LeftUpLeg
		{
			OFFSET 1.53139 -1.83434 0.76626
			CHANNELS 3 Zrotation Yrotation Xrotation
			JOINT LeftLeg
			{
				OFFSET 2.56112 -7.03663 0.00000
				CHANNELS 3 Zrotation Yrotation Xrotation
				JOINT LeftFoot
				{
					OFFSET 2.59983 -7.14299 0.00000
					CHANNELS 3 Zrotation Yrotation Xrotation
					JOINT LeftToeBase
					{
						OFFSET 0.13742 -0.37757 2.00054
						CHANNELS 3 Zrotation Yrotation Xrotation
						End Site
						{
							OFFSET 0.00000 -0.00000 1.02897
						}
					}
				}
			}
		}
	}
	JOINT RHipJoint
	{
		OFFSET 0 0 0
		CHANNELS 3 Zrotation Yrotation Xrotation
		JOINT RightUpLeg
		{
			OFFSET -1.40122 -1.83435 0.76627
			CHANNELS 3 Zrotation Yrotation Xrotation
			JOINT RightLeg
			{
				OFFSET -2.54052 -6.98003 0.00000
				CHANNELS 3 Zrotation Yrotation Xrotation
				JOINT RightFoot
				{
					OFFSET -2.63179 -7.23079 0.00000
					CHANNELS 3 Zrotation Yrotation Xrotation
					JOINT RightToeBase
					{
						OFFSET -0.24131 -0.66299 2.03908
						CHANNELS 3 Zrotation Yrotation Xrotation
						End Site
						{
							OFFSET -0.00000 -0.00000 1.07391
						}
					}
				}
			}
		}
	}
	JOINT LowerBack
	{
		OFFSET 0 0 0
		CHANNELS 3 Zrotation Yrotation Xrotation
		JOINT Spine
		{
			OFFSET 0.01174 2.10302 -0.29778
			CHANNELS 3 Zrotation Yrotation Xrotation
			JOINT Spine1
			{
				OFFSET 0.00772 2.13227 -0.01247
				CHANNELS 3 Zrotation Yrotation Xrotation
				JOINT Neck
				{
					OFFSET 0 0 0
					CHANNELS 3 Zrotation Yrotation Xrotation
					JOINT Neck1
					{
						OFFSET -0.09219 1.60848 0.31481
						CHANNELS 3 Zrotation Yrotation Xrotation
						JOINT Head
						{
							OFFSET 0.13974 1.65456 -0.31134
							CHANNELS 3 Zrotation Yrotation Xrotation
							End Site
							{
								OFFSET 0.04742 1.69515 -0.14578
							}
						}
					}
				}
				JOINT LeftShoulder
				{
					OFFSET 0 0 0
					CHANNELS 3 Zrotation Yrotation Xrotation
					JOINT LeftArm
					{
						OFFSET 3.24909 1.02882 -0.23993
						CHANNELS 3 Zrotation Yrotation Xrotation
						JOINT LeftForeArm
						{
							OFFSET 5.32955 -0.00000 -0.00000
							CHANNELS 3 Zrotation Yrotation Xrotation
							JOINT LeftHand
							{
								OFFSET 3.69232 -0.00000 -0.00000
								CHANNELS 3 Zrotation Yrotation Xrotation
								JOINT LeftFingerBase
								{
									OFFSET 0 0 0
									CHANNELS 3 Zrotation Yrotation Xrotation
									JOINT LeftHandIndex1
									{
										OFFSET 0.53660 -0.00000 -0.00000
										CHANNELS 3 Zrotation Yrotation Xrotation
										End Site
										{
											OFFSET 0.43262 -0.00000 -0.00000
										}
									}
								}
								JOINT LThumb
								{
									OFFSET 0 0 0
									CHANNELS 3 Zrotation Yrotation Xrotation
									End Site
									{
										OFFSET 0.43922 -0.00000 0.43922
									}
								}
							}
						}
					}
				}
				JOINT RightShoulder
				{
					OFFSET 0 0 0
					CHANNELS 3 Zrotation Yrotation Xrotation
					JOINT RightArm
					{
						OFFSET -3.21387 0.93002 -0.34594
						CHANNELS 3 Zrotation Yrotation Xrotation
						JOINT RightForeArm
						{
							OFFSET -5.23431 -0.00000 0.00000
							CHANNELS 3 Zrotation Yrotation Xrotation
							JOINT RightHand
							{
								OFFSET -3.55301 -0.00000 -0.00000
								CHANNELS 3 Zrotation Yrotation Xrotation
								JOINT RightFingerBase
								{
									OFFSET 0 0 0
									CHANNELS 3 Zrotation Yrotation Xrotation
									JOINT RightHandIndex1
									{
										OFFSET -0.77252 -0.00000 -0.00000
										CHANNELS 3 Zrotation Yrotation Xrotation
										End Site
										{
											OFFSET -0.62283 -0.00000 -0.00000
										}
									}
								}
								JOINT RThumb
								{
									OFFSET 0 0 0
									CHANNELS 3 Zrotation Yrotation Xrotation
									End Site
									{
										OFFSET -0.63234 -0.00000 0.63234
									}
								}
							}
						}
					}
				}
			}
		}
	}
}
MOTION
Frames: 5
Frame Time: .0083333
-1.3757 17.7120 -8.7226 -1273.8900 -117.4820 553.4250 0.0000 0.0000 0.0000 -16.3498 -11.3604 -24.1564 0.8532 5.8909 16.4681 -0.2735 9.5561 -6.1756 0.0216 -0.9479 -2.6054 0.0000 0.0000 0.0000 29.0883 -9.1729 5.3460 -0.5782 -4.8694 13.5364 -0.7493 -2.6118 -17.5004 -0.0537 1.4960 -4.1147 5.3075 3.9175 10.9749 1.0746 5.9253 0.0074 -2.7501 2.7650 -5.7128 -10.6865 -5.0242 -22.4444 8.3396 -6.4540 30.9630 4.0429 -2.9435 15.2599 -0.0000 -0.0000 0.0000 -88.0989 7.5101 20.4021 16.1778 -25.7611 -3.7229 -0.0000 -0.0000 8.2980 17.5951 24.4674 7.4827 -7.1250 0.0000 -0.0000 -12.6612 55.0493 -3.1619 -0.0000 -0.0000 0.0000 85.7255 5.4427 23.4980 -18.5314 28.8323 -4.8028 0.0000 0.0000 3.2533 -17.6364 8.7119 -2.7569 7.1250 -0.0000 -0.0000 6.6663 -20.8725 3.8796
-1.4758 17.7022 -8.6666 -1273.9900 -117.6900 553.4080 0.0000 0.0000 0.0000 -16.3346 -11.2596 -24.0576 0.8956 6.0316 16.8760 -0.3257 10.2681 -5.9985 0.0128 -0.7299 -2.0060 0.0000 0.0000 0.0000 29.1637 -9.2689 6.0252 -0.5541 -4.7682 13.2486 -0.7265 -2.9384 -17.4274 -0.0707 1.7155 -4.7200 5.4114 3.9586 11.0518 1.0087 5.9903 0.0711 -2.8881 2.7956 -5.6655 -10.6944 -5.1101 -22.4287 8.4424 -6.5905 30.7123 4.0516 -2.9823 15.1636 -0.0000 -0.0000 0.0000 -87.9646 7.3384 20.3908 15.8833 -25.3621 -3.5958 -0.0000 -0.0000 8.1440 18.1234 24.2286 7.6500 -7.1250 0.0000 -0.0000 -12.0098 54.9145 -2.9560 -0.0000 -0.0000 0.0000 85.8473 5.4908 23.4004 -18.7290 29.0806 -4.8984 0.0000 0.0000 3.1485 -17.7359 8.7792 -2.7947 7.1250 -0.0000 -0.0000 6.5940 -20.7969 3.8483
-1.5771 17.6913 -8.6094 -1273.8300 -117.8640 553.1880 0.0000 0.0000 0.0000 -16.3930 -11.3494 -23.8323 0.9281 6.1371 17.1828 -0.3819 11.0242 -5.9906 0.0055 -0.4800 -1.3189 0.0000 0.0000 0.0000 29.1943 -8.9663 6.6971 -0.5464 -4.7358 13.1566 -0.6920 -3.6192 -17.4395 -0.1069 2.1082 -5.8048 5.3472 4.0000 11.1081 0.9686 6.0382 0.0818 -2.9056 2.8199 -5.6838 -10.7763 -5.1739 -22.4063 8.4473 -6.6405 30.5793 4.0529 -3.0096 15.1083 0.0000 0.0000 0.0000 -87.9905 7.3070 20.1834 15.6334 -25.0211 -3.4895 -0.0000 -0.0000 8.5819 18.2405 24.2800 7.7175 -7.1250 0.0000 -0.0000 -11.9137 54.9888 -2.9535 0.0000 0.0000 0.0000 85.8668 5.3776 23.3680 -18.9716 29.3834 -5.0169 0.0000 0.0000 2.7847 -17.7306 8.7831 -2.7950 7.1250 -0.0000 -0.0000 6.5978 -20.7931 3.8511
-1.6807 17.6843 -8.5506 -1273.4600 -117.8930 552.8130 0.0000 0.0000 0.0000 -16.6801 -10.9247 -23.6949 0.9476 6.1996 17.3646 -0.3778 10.9389 -5.7678 0.0008 -0.1821 -0.5003 0.0000 0.0000 0.0000 29.0092 -8.7517 7.2262 -0.5574 -4.7824 13.2889 -0.6706 -4.0064 -17.4387 -0.1511 2.5049 -6.9032 5.1889 4.0944 11.1083 0.8508 6.1358 0.1097 -2.9535 2.8731 -5.6493 -10.7677 -5.2267 -22.5576 8.4613 -6.7119 30.6319 4.0443 -3.0330 15.1764 0.0000 0.0000 0.0000 -88.0220 7.2119 19.5100 15.4199 -24.7278 -3.3996 -0.0000 -0.0000 9.6930 16.8809 24.8952 7.2798 -7.1250 0.0000 -0.0000 -13.5990 55.3330 -3.4968 0.0000 0.0000 0.0000 86.0421 5.3012 23.2161 -19.1700 29.6294 -5.1146 0.0000 0.0000 2.3457 -17.9940 8.4025 -2.7174 7.1250 -0.0000 -0.0000 6.4119 -21.1749 3.6856
-1.7888 17.6786 -8.4834 -1273.2200 -117.7170 552.4910 0.0000 0.0000 0.0000 -16.9550 -10.3892 -23.3835 0.9588 6.2352 17.4683 -0.3689 10.7686 -5.3358 0.0000 0.0335 0.0919 0.0000 0.0000 0.0000 28.7241 -8.7520 7.6990 -0.5835 -4.8911 13.5981 -0.6671 -4.0623 -17.4355 -0.2157 2.9901 -8.2512 5.0709 4.2630 11.0787 0.6945 6.3303 0.1867 -3.0712 2.9761 -5.5295 -10.6004 -5.2401 -22.7456 8.4705 -6.7846 30.6942 4.0059 -3.0377 15.2496 -0.0000 0.0000 0.0000 -87.9067 7.0540 18.9768 15.2029 -24.4281 -3.3094 -0.0000 -0.0000 10.6589 14.9655 25.4227 6.5462 -7.1250 0.0000 -0.0000 -15.8207 55.4711 -4.1415 -0.0000 0.0000 0.0000 86.3243 5.3236 22.8263 -19.2363 29.7113 -5.1474 0.0000 0.0000 2.3084 -18.1347 8.3630 -2.7273 7.1250 -0.0000 -0.0000 6.3107 -21.2085 3.6219
